<?xml version="1.0" encoding="utf-8"?>
<!-- Generator: Adobe Illustrator 21.1.0, SVG Export Plug-In . SVG Version: 6.00 Build 0)  -->
<svg version="1.1" id="圖層_1" xmlns="http://www.w3.org/2000/svg" xmlns:xlink="http://www.w3.org/1999/xlink" x="0px" y="0px"
	 viewBox="0 0 708.7 510.2" style="enable-background:new 0 0 708.7 510.2;" xml:space="preserve">
<style type="text/css">
	.st0{fill:none;stroke:#FFFFFF;stroke-miterlimit:10;}
	.st1{fill:#E8C689;}
	.st2{fill:none;stroke:#E8C689;stroke-width:4;stroke-linecap:round;stroke-miterlimit:10;}
	.st3{fill:#67BE8D;}
	.st4{fill:#718CC6;}
	.st5{fill:#D0C5B9;}
	.st6{fill:#D0DBE0;}
</style>
<g>
	<path class="st0" d="M76.4,328c-0.8,6.2,4.1,12,10.9,12.8"/>
	<path class="st0" d="M75.7,333.6c-0.4,3.1,2.2,6,5.9,6.4"/>
	<path class="st1" d="M67.6,359.5l21.1,2.7c1.8,0.2,3.5-1.1,3.7-2.9l25-204.1c0.2-1.5-0.6-3-2.1-3.5l-0.8-0.3
		c-1.9-0.7-4,0.4-4.5,2.4L64.8,355.4C64.3,357.3,65.6,359.2,67.6,359.5z"/>
	<g>
		<g>
			<path class="st1" d="M51.7,178.8c12.7,22.5,25.3,45.1,38,67.6c1.8,3.2,3.6,6.3,5.3,9.5c2.6,4.5,10.1,1.4,7.5-3.2
				c-12.7-22.5-25.3-45.1-38-67.6c-1.8-3.2-3.6-6.3-5.3-9.5C56.7,171.1,49.1,174.2,51.7,178.8L51.7,178.8z"/>
		</g>
	</g>
	<g>
		<g>
			<path class="st1" d="M150.8,224.8c-20.1,23.3-40.3,46.6-60.4,69.9c-2.8,3.3-5.6,6.5-8.5,9.8c-3.5,4,3,8.9,6.5,5
				c20.1-23.3,40.3-46.6,60.4-69.9c2.8-3.3,5.6-6.5,8.5-9.8C160.7,225.7,154.2,220.8,150.8,224.8L150.8,224.8z"/>
		</g>
	</g>
	<g>
		<g>
			<path class="st1" d="M134.3,174c-10,9.7-20.1,19.2-30.1,28.9c-3.8,3.6,1.2,10.1,5,6.5c10-9.7,20.1-19.2,30.1-28.9
				C143,176.8,138.1,170.4,134.3,174L134.3,174z"/>
		</g>
	</g>
	<g>
		<g>
			<path class="st1" d="M74,177.8c-0.7,11.6-1.4,23.2-2.1,34.8c-0.3,5.2,7.7,6.3,8.1,1c0.7-11.6,1.4-23.2,2.1-34.8
				C82.4,173.7,74.4,172.6,74,177.8L74,177.8z"/>
		</g>
	</g>
	<g>
		<g>
			<path class="st1" d="M127.9,224.5c2,6.5,4.1,13,6.2,19.4c1.6,5,9.1,1.8,7.5-3.2c-2-6.5-4.1-13-6.2-19.4
				C133.7,216.3,126.3,219.5,127.9,224.5L127.9,224.5z"/>
		</g>
	</g>
	<line class="st2" x1="124.7" y1="169.3" x2="126.2" y2="187.4"/>
	<line class="st2" x1="51.5" y1="204.5" x2="78.7" y2="224"/>
	<g>
		<path class="st3" d="M139,171.5c0,0,9.7-7,3.1-19C141.6,153,131.9,159.2,139,171.5z"/>
		<path class="st4" d="M139,171.5l3.1-19C142.1,152.5,131.4,159,139,171.5z"/>
	</g>
	<g>
		<path class="st3" d="M142.1,173.9c0,0,9.4,7.4,19.1-2.4C160.6,171.2,152,163.6,142.1,173.9z"/>
		<path class="st4" d="M142.1,173.9l19.1-2.4C161.2,171.5,152,163.1,142.1,173.9z"/>
	</g>
	<g>
		<path class="st3" d="M130.6,217.9c0,0,10.3-6.3,4.4-18.8C134.5,199.6,124.3,205,130.6,217.9z"/>
		<path class="st4" d="M130.6,217.9l4.4-18.8C135,199.1,123.8,204.8,130.6,217.9z"/>
	</g>
	<g>
		<path class="st3" d="M128.9,219c0,0-2.7-11.7-16.3-10.2C112.8,209.4,114.7,220.8,128.9,219z"/>
		<path class="st4" d="M128.9,219l-16.3-10.2C112.6,208.8,114.4,221.2,128.9,219z"/>
	</g>
	<g>
		<path class="st3" d="M79,173.3c0,0,12,0.5,14.1-13.2C92.4,160.2,80.9,159.1,79,173.3z"/>
		<path class="st4" d="M79,173.3l14.1-13.2C93,160.1,80.6,158.7,79,173.3z"/>
	</g>
	<g>
		<path class="st3" d="M76.7,173.6c0,0,4.2-11.2-8.1-17.5C68.7,156.9,63.9,167.3,76.7,173.6z"/>
		<path class="st4" d="M76.7,173.6l-8.1-17.5C68.7,156.2,63.4,167.5,76.7,173.6z"/>
	</g>
	<g>
		<path class="st3" d="M51,173.2c0,0-3.6-15-21.1-12.8C30.3,161.1,32.9,175.6,51,173.2z"/>
		<path class="st4" d="M51,173.2l-21.1-12.8C29.9,160.3,32.5,176.2,51,173.2z"/>
	</g>
	<g>
		<path class="st3" d="M49.4,203.4c0,0-1.3-11.9-15.1-12C34.5,192,35.1,203.5,49.4,203.4z"/>
		<path class="st4" d="M49.4,203.4l-15.1-12C34.3,191.4,34.8,203.9,49.4,203.4z"/>
	</g>
	<g>
		<path class="st3" d="M53,171.8c0,0,11.1-10.8,0.2-24.8C52.8,147.7,41.5,157.4,53,171.8z"/>
		<path class="st4" d="M53,171.8l0.2-24.8C53.2,147.1,40.9,157.4,53,171.8z"/>
	</g>
	<g>
		<path class="st3" d="M156.1,221.2c0,0,8.7-8.3,0.4-19.2C156.1,202.5,147.3,209.9,156.1,221.2z"/>
		<path class="st4" d="M156.1,221.2l0.4-19.2C156.5,201.9,146.8,209.8,156.1,221.2z"/>
	</g>
	<g>
		<path class="st3" d="M111.7,149.7c0,0,7.6-15.1-8.6-25.8C102.9,124.8,94.7,138.9,111.7,149.7z"/>
		<path class="st4" d="M111.7,149.7l-8.6-25.8C103.1,123.9,94,139.1,111.7,149.7z"/>
	</g>
	<g>
		<path class="st3" d="M116.3,149.6c0,0,16.8-1.6,17.3-21C132.7,128.9,116.5,129.4,116.3,149.6z"/>
		<path class="st4" d="M116.3,149.6l17.3-21C133.7,128.6,115.9,129,116.3,149.6z"/>
	</g>
	<path class="st0" d="M114.6,161.2c-0.5,3.9-2.5,6.9-4.3,6.6"/>
	<path class="st0" d="M115.8,168.5c-0.3,2-3,3.4-6.1,3"/>
	<path class="st0" d="M104.8,192.1c-0.4,2.8,1.1,5.3,3.3,5.6"/>
	<path class="st0" d="M102.5,196.9c-0.3,2.4,2.7,4.7,6.7,5.2"/>
	<path class="st0" d="M106.7,216.9c-0.4,3.4-3,6-5.9,5.6"/>
	<path class="st0" d="M106.7,221.6c-0.2,1.8-2.4,3-4.7,2.7"/>
	<path class="st0" d="M91.8,238.8c-0.5,3.6,3.1,7.1,8,7.7"/>
	<path class="st0" d="M94.4,236.4c-0.4,3.3,1.9,6.4,5.2,6.8"/>
	<path class="st0" d="M103.6,262.6c-0.3,2.4-5.1,3.8-10.8,3"/>
	<path class="st0" d="M103,267.1c-0.2,1.3-3.8,2-8.1,1.5"/>
	<path class="st0" d="M85.8,284.8c-0.5,4.1,3,7.9,7.9,8.6"/>
	<path class="st0" d="M83.2,288.3c-0.3,2,2.5,4.1,6.1,4.6"/>
	<path class="st0" d="M97.6,308.7c-0.5,3.9-6.5,6.4-13.4,5.5"/>
	<path class="st0" d="M94.6,315.5c-0.2,1.7-3.6,2.6-7.7,2.1"/>
	<g>
		<path class="st3" d="M159.5,224.1c0,0,11.2,4.3,17.6-7.9C176.4,216.1,165.9,211.3,159.5,224.1z"/>
		<path class="st4" d="M159.5,224.1l17.6-7.9C177.1,216.2,165.8,210.9,159.5,224.1z"/>
	</g>
</g>
<g>
	<path class="st0" d="M639.9,336.6c6.7-1.5,11.1-7.7,9.7-13.8"/>
	<path class="st0" d="M645.5,335.3c3.6-0.8,6-3.9,5.3-6.9"/>
	<path class="st1" d="M663.6,349.2l-63-197.4c-0.6-1.9-2.9-2.9-4.7-2l-0.8,0.4c-1.4,0.7-2.1,2.2-1.8,3.7l43,201.6
		c0.4,1.9,2.2,3,4,2.6l20.9-4.6C663.1,353.1,664.2,351.1,663.6,349.2z"/>
	<g>
		<g>
			<path class="st1" d="M661.1,171.7c2.2-4.8-5.6-7.3-7.8-2.5c-1.5,3.3-3,6.7-4.5,10c-10.7,23.6-21.3,47.3-32,70.9
				c-2.1,4.8,5.6,7.3,7.8,2.5c1.5-3.3,3-6.7,4.5-10C639.8,219,650.4,195.3,661.1,171.7L661.1,171.7z"/>
		</g>
	</g>
	<g>
		<g>
			<path class="st1" d="M566.2,226.4c-3.7-3.7-9.8,1.8-6,5.6c3.1,3,6.2,6,9.3,9c22.1,21.5,44.3,43,66.5,64.4c3.8,3.6,9.8-1.9,6-5.6
				c-3.1-3-6.2-6-9.3-9C610.5,269.4,588.3,247.8,566.2,226.4L566.2,226.4z"/>
		</g>
	</g>
	<g>
		<g>
			<path class="st1" d="M578.2,174.2c-4.1-3.3-8.4,3.6-4.4,6.9c10.8,8.8,21.7,17.4,32.6,26.2c4.1,3.3,8.5-3.6,4.4-6.9
				C599.9,191.6,589,183,578.2,174.2L578.2,174.2z"/>
		</g>
	</g>
	<g>
		<g>
			<path class="st1" d="M638.7,172.7c-0.8-5.2-8.8-3.4-8,1.8c1.7,11.5,3.5,23.1,5.2,34.6c0.8,5.2,8.8,3.4,8-1.8
				C642.2,195.8,640.4,184.2,638.7,172.7L638.7,172.7z"/>
		</g>
	</g>
	<g>
		<g>
			<path class="st1" d="M589.1,224c1.2-5.1-6.6-7.7-7.8-2.5c-1.5,6.6-3,13.3-4.5,19.9c-1.1,5.1,6.6,7.7,7.8,2.5
				C586.1,237.4,587.6,230.7,589.1,224L589.1,224z"/>
		</g>
	</g>
	<line class="st2" x1="587.5" y1="186.9" x2="587.4" y2="168.6"/>
	<line class="st2" x1="638.1" y1="219.2" x2="663.5" y2="197.3"/>
	<g>
		<path class="st3" d="M568.6,153.4c-5.6,12.6,4.8,18.7,4.8,18.7C579.3,159.2,569,153.9,568.6,153.4z"/>
		<path class="st4" d="M568.6,153.4l4.8,18.7C579.8,159,568.6,153.4,568.6,153.4z"/>
	</g>
	<g>
		<path class="st3" d="M551.1,174c10.5,9,19.3,0.8,19.3,0.8C559.6,165.3,551.7,173.8,551.1,174z"/>
		<path class="st4" d="M551.1,174l19.3,0.8C559.6,164.8,551.1,174.1,551.1,174z"/>
	</g>
	<g>
		<path class="st3" d="M579.7,199.3c-4.7,13,6.1,18.4,6.1,18.4C590.9,204.3,580.3,199.8,579.7,199.3z"/>
		<path class="st4" d="M579.7,199.3l6.1,18.4C591.4,204,579.7,199.3,579.7,199.3z"/>
	</g>
	<g>
		<path class="st3" d="M603,207.1c-13.8-0.3-15.4,11.6-15.4,11.6C601.9,219.2,602.8,207.7,603,207.1z"/>
		<path class="st4" d="M603,207.1l-15.4,11.6C602.3,219.6,603,207.1,603,207.1z"/>
	</g>
	<g>
		<path class="st3" d="M618.1,156.7c3.3,13.4,15.2,11.9,15.2,11.9C630.2,154.6,618.8,156.7,618.1,156.7z"/>
		<path class="st4" d="M618.1,156.7l15.2,11.9C630.5,154.2,618.2,156.7,618.1,156.7z"/>
	</g>
	<g>
		<path class="st3" d="M642.1,150.6c-11.7,7.4-6.5,18.2-6.5,18.2C647.9,161.3,642.2,151.3,642.1,150.6z"/>
		<path class="st4" d="M642.1,150.6l-6.5,18.2C648.4,161.5,642.2,150.6,642.1,150.6z"/>
	</g>
	<g>
		<path class="st3" d="M681.3,151.4c-17.7-0.6-20,14.6-20,14.6C679.6,166.9,680.9,152.2,681.3,151.4z"/>
		<path class="st4" d="M681.3,151.4l-20,14.6C680.1,167.4,681.2,151.4,681.3,151.4z"/>
	</g>
	<g>
		<path class="st3" d="M679.5,182.8c-13.7,1.3-14,13.3-14,13.3C679.9,195,679.4,183.4,679.5,182.8z"/>
		<path class="st4" d="M679.5,182.8l-14,13.3C680.2,195.3,679.5,182.8,679.5,182.8z"/>
	</g>
	<g>
		<path class="st3" d="M656.8,140.1c-9.6,14.9,2.4,24.8,2.4,24.8C669.4,149.5,657.3,140.8,656.8,140.1z"/>
		<path class="st4" d="M656.8,140.1l2.4,24.8C670,149.4,656.8,140.2,656.8,140.1z"/>
	</g>
	<g>
		<path class="st3" d="M558.5,204c-7.2,11.7,2.1,19.2,2.1,19.2C568.4,211.2,558.9,204.6,558.5,204z"/>
		<path class="st4" d="M558.5,204l2.1,19.2C568.9,211.1,558.5,204,558.5,204z"/>
	</g>
	<g>
		<path class="st3" d="M604.9,121.4c-15.2,12.1-6.3,26.5-6.3,26.5C614.6,135.6,605.2,122.3,604.9,121.4z"/>
		<path class="st4" d="M604.9,121.4l-6.3,26.5C615.3,135.8,604.9,121.5,604.9,121.4z"/>
	</g>
	<g>
		<path class="st3" d="M574.9,128.9c2.2,19.3,19.1,19.4,19.1,19.4C592.1,128.1,575.8,129.1,574.9,128.9z"/>
		<path class="st4" d="M574.9,128.9l19.1,19.4C592.6,127.6,574.9,128.8,574.9,128.9z"/>
	</g>
	<path class="st0" d="M601.7,165.9c-1.9,0.4-4.1-2.4-4.9-6.2"/>
	<path class="st0" d="M602.5,169.5c-3.1,0.7-5.9-0.4-6.3-2.4"/>
	<path class="st0" d="M606.5,195.5c2.1-0.5,3.4-3.1,2.8-5.8"/>
	<path class="st0" d="M605.7,200c4-0.9,6.8-3.4,6.3-5.8"/>
	<path class="st0" d="M615.9,219.7c-2.8,0.6-5.6-1.7-6.3-5.1"/>
	<path class="st0" d="M614.9,221.6c-2.3,0.5-4.6-0.5-5-2.3"/>
	<path class="st0" d="M619.1,243.6c4.8-1.1,8.1-4.8,7.3-8.4"/>
	<path class="st0" d="M619,240.2c3.3-0.7,5.3-4,4.6-7.3"/>
	<path class="st0" d="M627.7,262.1c-5.6,1.2-10.5,0.3-11.1-2.1"/>
	<path class="st0" d="M625.9,265.1c-4.3,0.9-8,0.6-8.2-0.8"/>
	<path class="st0" d="M629.2,289.8c4.9-1.1,8.1-5.2,7.2-9.2"/>
	<path class="st0" d="M633.6,288.9c3.6-0.8,6.1-3.1,5.7-5.1"/>
	<path class="st0" d="M640.5,309.8c-6.8,1.5-13-0.5-13.8-4.3"/>
	<path class="st0" d="M638.2,313.4c-4,0.9-7.5,0.3-7.8-1.4"/>
	<g>
		<path class="st3" d="M539.2,220.1c7.4,11.6,18.3,6.4,18.3,6.4C549.9,214.2,539.8,220,539.2,220.1z"/>
		<path class="st4" d="M539.2,220.1l18.3,6.4C550,213.8,539.2,220.1,539.2,220.1z"/>
	</g>
</g>
<path class="st5" d="M0,302.8c-3.8-3.3,16.8,13.1,51.3,20.8c7.8,1.7,69.8,51.8,67.6,53.4c15.3,18.7,24.9,28.2,45.6,45.2
	c11.5,11.4,41.2,30.9,61,42.3c17.2,5.6,33.6-2.7,56,8c3.9,4.2,99.3,9,103.9,12.3c2.4,2.9,70.3-3.1,79.9-10.8
	c9.6-7.7,66.6-13.3,66.6-13.3c4.2,2.4,52.2-14.5,53.9-21.6c11.5-46.9,33.7-74.5,38.7-77.9c19.5-17.9,16.9-27.2,24.7-28.6l35.7-57.3
	l23.9-14.4v238.4H0V302.8z"/>
<path class="st6" d="M0,313.7c2.4-3.5,62.2,27.5,67.4,28.5c11,2.1,55.1,44.3,51.4,45.7c20.6,29.2,39.2,48,55.2,53.3
	c17.4,5.3,34.4,18.3,51.4,34.2c26.6,8.7,74.8,10.1,74.8,10.1c8.1-5.2,106,8.8,102.9,7.1c0,0,60.1-10.5,62-7.8
	c27-1.8,49-6.4,66.6-13.3c8.3,3,53.9-15,53.9-21.6c0-11,47.5-94.5,51.2-90.6c0,0,8.7-10.8,12.2-16c3.6-5.2,31.5-55.3,34.2-52
	c9.4-10.4,18.2-18.3,25.4-19.7v238.4H0V313.7z"/>
</svg>
