<svg id="圖層_1" data-name="圖層 1" xmlns="http://www.w3.org/2000/svg" viewBox="0 0 206.4 314.2"><defs><style>.cls-1{fill:#947f70;}.cls-2{fill:#fff;}.cls-3{fill:#d3a98c;}.cls-4{fill:#403d04;}.cls-5{fill:#704020;}.cls-6{fill:none;stroke:#704020;stroke-miterlimit:10;}</style></defs><title>member_info_frame</title><path class="cls-1" d="M578.2,408.3H410.6a19.48,19.48,0,0,1-19.4-19.4V148.2a19.48,19.48,0,0,1,19.4-19.4H578.2a19.48,19.48,0,0,1,19.4,19.4V388.8A19.5,19.5,0,0,1,578.2,408.3Z" transform="translate(-391.2 -94.1)"/><path class="cls-2" d="M556.4,397h-124a26.72,26.72,0,0,1-26.6-26.6v-204a26.72,26.72,0,0,1,26.6-26.6h124A26.72,26.72,0,0,1,583,166.4v204A26.72,26.72,0,0,1,556.4,397Z" transform="translate(-391.2 -94.1)"/><path class="cls-1" d="M492.6,100.5c-19.6,0-35.5,12.6-35.5,28.2H528C528.1,113.2,512.2,100.5,492.6,100.5Z" transform="translate(-391.2 -94.1)"/><path class="cls-1" d="M468.9,94.8c-5,2.3-6.5,9.5-3.5,16.1l18-8.3C480.4,96.1,473.9,92.5,468.9,94.8Z" transform="translate(-391.2 -94.1)"/><path class="cls-3" d="M470.1,97.6c-2.4,1.1-3.2,4.7-1.7,7.9l8.8-4.1C475.7,98.2,472.5,96.5,470.1,97.6Z" transform="translate(-391.2 -94.1)"/><path class="cls-1" d="M516.4,94.8c5,2.3,6.5,9.5,3.5,16.1l-18-8.3C504.9,96.1,511.4,92.5,516.4,94.8Z" transform="translate(-391.2 -94.1)"/><circle class="cls-2" cx="112.5" cy="24.2" r="4.9"/><circle class="cls-4" cx="112.2" cy="24.8" r="3.3"/><circle class="cls-2" cx="111.8" cy="24.2" r="0.6"/><circle class="cls-2" cx="92.2" cy="24.2" r="4.9"/><circle class="cls-4" cx="91.9" cy="24.8" r="3.3"/><circle class="cls-2" cx="91.5" cy="24.2" r="0.6"/><path class="cls-3" d="M514.7,97.6c2.4,1.1,3.2,4.7,1.7,7.9l-8.8-4.1C509.1,98.2,512.3,96.5,514.7,97.6Z" transform="translate(-391.2 -94.1)"/><ellipse class="cls-5" cx="102.2" cy="32.5" rx="2.5" ry="1.8"/><path class="cls-6" d="M493.4,128.4v5.9a8.11,8.11,0,0,1-9.9-2" transform="translate(-391.2 -94.1)"/><path class="cls-6" d="M493.4,128.4v5.9a8.11,8.11,0,0,0,9.9-2" transform="translate(-391.2 -94.1)"/></svg>