<svg id="圖層_1" data-name="圖層 1" xmlns="http://www.w3.org/2000/svg" viewBox="0 0 345.3 525.64"><defs><style>.cls-1{fill:#947f70;}.cls-2{fill:#fff;}.cls-3{fill:#d3a98c;}.cls-4{fill:#403d04;}.cls-5{fill:#704020;}.cls-6{fill:none;stroke:#704020;stroke-miterlimit:10;}</style></defs><title>member_info_frame1</title><path class="cls-1" d="M704,619.74H423.66a32.59,32.59,0,0,1-32.46-32.46V184.6a32.59,32.59,0,0,1,32.46-32.46H704A32.59,32.59,0,0,1,736.5,184.6V587.12A32.63,32.63,0,0,1,704,619.74Z" transform="translate(-391.2 -94.1)"/><path class="cls-2" d="M667.57,600.84H460.13a44.7,44.7,0,0,1-44.5-44.5V215.05a44.7,44.7,0,0,1,44.5-44.5H667.57a44.7,44.7,0,0,1,44.5,44.5V556.34A44.7,44.7,0,0,1,667.57,600.84Z" transform="translate(-391.2 -94.1)"/><path class="cls-1" d="M560.84,104.8c-32.79,0-59.39,21.08-59.39,47.18H620.06C620.23,126.05,593.63,104.8,560.84,104.8Z" transform="translate(-391.2 -94.1)"/><path class="cls-1" d="M521.19,95.27c-8.36,3.85-10.87,15.89-5.86,26.93l30.11-13.89C540.43,97.44,529.55,91.42,521.19,95.27Z" transform="translate(-391.2 -94.1)"/><path class="cls-3" d="M523.2,100c-4,1.84-5.35,7.86-2.84,13.22l14.72-6.86C532.57,101,527.21,98.11,523.2,100Z" transform="translate(-391.2 -94.1)"/><path class="cls-1" d="M600.66,95.27c8.36,3.85,10.87,15.89,5.86,26.93L576.4,108.32C581.42,97.44,592.29,91.42,600.66,95.27Z" transform="translate(-391.2 -94.1)"/><circle class="cls-2" cx="188.21" cy="40.48" r="8.2"/><circle class="cls-4" cx="187.71" cy="41.48" r="5.52"/><circle class="cls-2" cx="187.04" cy="40.48" r="1"/><circle class="cls-2" cx="154.25" cy="40.48" r="8.2"/><circle class="cls-4" cx="153.75" cy="41.48" r="5.52"/><circle class="cls-2" cx="153.08" cy="40.48" r="1"/><path class="cls-3" d="M597.81,100c4,1.84,5.35,7.86,2.84,13.22l-14.72-6.86C588.44,101,593.8,98.11,597.81,100Z" transform="translate(-391.2 -94.1)"/><ellipse class="cls-5" cx="170.98" cy="54.37" rx="4.18" ry="3.01"/><path class="cls-6" d="M562.18,151.48v9.87s-8.7,5-16.56-3.35" transform="translate(-391.2 -94.1)"/><path class="cls-6" d="M562.18,151.48v9.87s8.7,5,16.56-3.35" transform="translate(-391.2 -94.1)"/></svg>